# xmcd
#
# Track frame offsets: 
#        150
#        19973
#        38644
#        55041
#        73971
#        91299
#        115426
#        138486
#        156501
#        181271
#        203133
#        221142
#        240047
#        257702
#        279365
#        298148
#
# Disc length: 4160 seconds
#
# Revision: 0
# Processed by: cddbd v1.5.1PL0 Copyright (c) Steve Scherf et al.
# Submitted via: ExactAudioCopy v0.95a5
#
DISCID=f1103e10
DTITLE=Various Artist - Golden Ballads Nitro Radio CD1
DYEAR=2004
DGENRE=Ballads
TTITLE0=Evanescence - My Immortal
TTITLE1=Prince - Purple Rain
TTITLE2=Sting - Fields Of God
TTITLE3=Delta Goodrem - Born To Try
TTITLE4=Bonnie Bianco and Pierre Cosso - Stay
TTITLE5=Michael Bolton - Lean On Me
TTITLE6=Eros Ramazzoti - Se Bastasse Una Canzone
TTITLE7=Cyndi Lauper - Time After Time
TTITLE8=Massive Attack - Tear Drops
TTITLE9=Tanita Tikaram - Twist In My Sobriety
TTITLE10=Marvin Gaye - Sexual Healing
TTITLE11=Sugarbabes - Too Lost In You
TTITLE12=C-Real - Your Favourite Kiss
TTITLE13=Black - Wonderful Life
TTITLE14=Paul Young - Wherever I Lay My Hat
TTITLE15=Michael Andrews Feat. Gary Jules - Mad World
EXTD=
EXTT0=
EXTT1=
EXTT2=
EXTT3=
EXTT4=
EXTT5=
EXTT6=
EXTT7=
EXTT8=
EXTT9=
EXTT10=
EXTT11=
EXTT12=
EXTT13=
EXTT14=
EXTT15=
PLAYORDER=
